<svg xmlns="http://www.w3.org/2000/svg" width="200pt" height="65pt" viewBox="0 0 480 290" version="1.1" xmlns:xlink="http://www.w3.org/1999/xlink">
  <g id="surface2" transform="matrix(1,0,0,1,0,0)">
    <path style="stroke:none;fill-rule:evenodd;fill:rgb(91.372549%,83.137255%,18.823529%);fill-opacity:1" d="M 251.699219 114.148438 C 249.667969 114.117188 247.816406 113.617188 246.148438 112.648438 C 244.484375 111.683594 243.167969 110.367188 242.199219 108.699219 C 241.199219 107.035156 240.699219 105.167969 240.699219 103.101562 C 240.699219 101.066406 241.199219 99.214844 242.199219 97.550781 C 243.167969 95.882812 244.484375 94.566406 246.148438 93.601562 C 247.816406 92.601562 249.667969 92.101562 251.699219 92.101562 C 253.765625 92.101562 255.632812 92.601562 257.300781 93.601562 C 258.964844 94.566406 260.285156 95.882812 261.25 97.550781 C 262.25 99.214844 262.75 101.066406 262.75 103.101562 C 262.714844 105.167969 262.214844 107.035156 261.25 108.699219 C 260.285156 110.367188 258.964844 111.683594 257.300781 112.648438 C 255.632812 113.648438 253.765625 114.148438 251.699219 114.148438 M 275.199219 116.699219 L 265.949219 107.398438 C 266.050781 107.101562 266.132812 106.816406 266.199219 106.550781 L 278.851562 103.148438 L 266.199219 99.75 C 266.132812 99.449219 266.050781 99.148438 265.949219 98.851562 L 275.199219 89.601562 L 262.550781 93 C 262.316406 92.765625 262.101562 92.550781 261.898438 92.351562 L 265.300781 79.648438 L 256 88.949219 C 255.699219 88.851562 255.398438 88.765625 255.101562 88.699219 L 251.75 76 L 248.398438 88.699219 C 248.066406 88.765625 247.734375 88.851562 247.398438 88.949219 L 238.148438 79.648438 L 241.601562 92.300781 C 241.367188 92.535156 241.132812 92.765625 240.898438 93 L 228.25 89.550781 L 237.550781 98.800781 C 237.449219 99.132812 237.367188 99.464844 237.300781 99.800781 L 224.601562 103.148438 L 237.300781 106.5 C 237.367188 106.800781 237.449219 107.117188 237.550781 107.449219 L 228.25 116.699219 L 240.898438 113.25 C 241.132812 113.484375 241.367188 113.714844 241.601562 113.949219 L 238.148438 126.648438 L 247.398438 117.351562 C 247.734375 117.417969 248.050781 117.5 248.351562 117.601562 L 251.75 130.25 L 255.148438 117.601562 C 255.417969 117.535156 255.699219 117.449219 256 117.351562 L 265.300781 126.601562 L 261.898438 113.949219 C 262.101562 113.714844 262.316406 113.5 262.550781 113.300781 L 275.199219 116.699219 "/>
    <path style="stroke:none;fill-rule:evenodd;fill:rgb(28.627451%,30.588235%,42.352941%);fill-opacity:1" d="M 286.800781 104.101562 C 287.5 105 288.132812 105.898438 288.699219 106.800781 L 290.25 106.800781 C 289.617188 105.867188 288.882812 104.964844 288.050781 104.101562 L 286.800781 104.101562 M 282.898438 132.699219 L 288.5 132.699219 C 290.101562 130.398438 291.351562 128.148438 292.25 125.949219 L 288.148438 125.949219 C 286.816406 128.148438 285.066406 130.398438 282.898438 132.699219 M 270.75 142.800781 L 279.300781 142.800781 C 282.234375 140.132812 284.734375 137.515625 286.800781 134.949219 L 280.601562 134.949219 C 277.867188 137.515625 274.582031 140.132812 270.75 142.800781 M 248.75 155.949219 L 261.800781 155.949219 C 264.367188 154.316406 266.898438 152.566406 269.398438 150.699219 C 271.933594 148.832031 274.167969 147.101562 276.101562 145.5 L 266.648438 145.5 C 264.183594 147.101562 261.398438 148.816406 258.300781 150.648438 C 255.199219 152.515625 252.015625 154.285156 248.75 155.949219 M 292.851562 111.800781 C 292.382812 110.5 291.785156 109.234375 291.050781 108 L 289.351562 108 C 289.984375 109.234375 290.464844 110.5 290.800781 111.800781 L 292.851562 111.800781 M 311.25 122.101562 C 309.984375 118.898438 308.316406 116.035156 306.25 113.5 C 304.183594 110.933594 301.949219 108.667969 299.550781 106.699219 C 297.117188 104.734375 294.734375 103.050781 292.398438 101.648438 C 290.035156 100.25 287.933594 99.117188 286.101562 98.25 C 284.234375 97.351562 282.832031 96.699219 281.898438 96.300781 C 281.898438 96.300781 281.898438 96.300781 281.898438 96.300781 C 282.398438 102.132812 282 107.199219 280.699219 111.5 C 279.398438 115.832031 277.5 119.515625 275 122.550781 C 272.5 125.617188 269.699219 128.148438 266.601562 130.148438 C 266.601562 130.148438 266.617188 130.132812 266.648438 130.101562 C 266.617188 130.132812 266.582031 130.167969 266.550781 130.199219 C 263.882812 131.933594 261.199219 133.367188 258.5 134.5 C 255.800781 135.601562 253.285156 136.484375 250.949219 137.148438 C 249.015625 137.714844 246.765625 138.316406 244.199219 138.949219 C 241.632812 139.617188 238.933594 140.300781 236.101562 141 C 233.234375 141.667969 230.398438 142.332031 227.601562 143 C 224.800781 143.667969 222.183594 144.285156 219.75 144.851562 C 215.851562 145.785156 211.765625 146.714844 207.5 147.648438 C 203.234375 148.582031 199 149.484375 194.800781 150.351562 C 190.566406 151.214844 186.582031 152.015625 182.851562 152.75 C 179.082031 153.449219 175.765625 154.066406 172.898438 154.601562 C 170 155.101562 167.75 155.464844 166.148438 155.699219 L 200.949219 155.699219 C 204.617188 154.964844 208.433594 154.117188 212.398438 153.148438 C 216.398438 152.183594 220.464844 151.167969 224.601562 150.101562 C 231.332031 148.398438 236.964844 146.898438 241.5 145.601562 C 246 144.300781 249.714844 143.132812 252.648438 142.101562 C 255.582031 141.035156 258.050781 140.015625 260.050781 139.050781 C 262.050781 138.082031 263.882812 137.066406 265.550781 136 C 272.550781 131.734375 277.464844 126.351562 280.300781 119.851562 C 283.132812 113.382812 283.800781 105.867188 282.300781 97.300781 C 285.867188 99 289.285156 101.117188 292.550781 103.648438 C 295.816406 106.214844 298.765625 109.167969 301.398438 112.5 C 304 115.867188 306.101562 119.550781 307.699219 123.550781 C 308.898438 126.714844 309.398438 130.035156 309.199219 133.5 C 309.035156 136.964844 308.351562 140.550781 307.148438 144.25 C 305.984375 147.984375 304.484375 151.800781 302.648438 155.699219 L 309.449219 155.699219 C 314.582031 143.464844 315.183594 132.265625 311.25 122.101562 M 289.101562 124.300781 L 292.851562 124.300781 C 293.382812 122.566406 293.714844 120.851562 293.851562 119.148438 L 290.898438 119.148438 C 290.566406 120.851562 289.964844 122.566406 289.101562 124.300781 M 293.351562 113.449219 C 293.683594 114.785156 293.867188 116.132812 293.898438 117.5 L 291.199219 117.5 C 291.332031 116.132812 291.300781 114.785156 291.101562 113.449219 L 293.351562 113.449219 "/>
  </g>
  <g id="surface4">
    <text style="fill:rgb(73,78,108)" font-family="Arial Black" font-size="50" transform="matrix(1,0,0,1,74.35,186.3)" xml:space="preserve"><![CDATA[TransportIQ]]></text>
  </g>
</svg>